<?xml version="1.0" standalone="no"?>
<!DOCTYPE svg PUBLIC "-//W3C//DTD SVG 20010904//EN"
 "http://www.w3.org/TR/2001/REC-SVG-20010904/DTD/svg10.dtd">
<svg version="1.0" xmlns="http://www.w3.org/2000/svg"
 width="1014.000000pt" height="1020.000000pt" viewBox="0 0 1014.000000 1020.000000"
 preserveAspectRatio="xMidYMid meet">

<g transform="translate(0.000000,1020.000000) scale(0.100000,-0.100000)"
fill="#000000" stroke="none">
<path d="M4795 10039 c-665 -49 -1252 -210 -1820 -499 -1027 -523 -1837 -1404
-2293 -2495 -92 -221 -216 -591 -236 -705 -8 -49 -2 -31 39 105 40 130 60 177
50 110 -4 -22 -5 -38 -2 -35 2 3 26 64 52 135 54 148 147 376 152 372 1 -2
-27 -86 -63 -188 -137 -381 -225 -752 -269 -1129 -29 -246 -32 -712 -4 -645 4
11 18 135 29 275 32 391 68 626 145 945 66 276 187 622 295 845 49 103 47 91
-15 -60 -112 -276 -232 -680 -289 -975 -60 -309 -77 -482 -81 -835 -4 -325 6
-298 24 65 22 420 74 739 186 1137 90 318 176 542 290 753 35 66 98 185 140
265 69 134 300 474 409 604 19 22 72 86 117 141 45 55 87 102 93 104 6 2 76
67 156 145 556 544 1210 927 1940 1135 301 86 728 162 965 172 153 6 488 -3
700 -20 326 -26 891 -172 1285 -333 465 -189 1021 -561 1380 -922 68 -69 127
-121 131 -115 9 16 82 -70 257 -305 199 -264 299 -413 415 -617 42 -73 197
-386 197 -397 0 -5 9 -21 20 -35 55 -70 211 -580 275 -902 38 -190 98 -637 93
-693 -3 -30 -6 -22 -15 38 l-12 75 5 -77 c10 -158 4 -490 -11 -653 -9 -93 -14
-190 -11 -215 2 -25 2 -36 -1 -25 -9 27 -33 -153 -26 -184 4 -15 2 -22 -5 -17
-6 4 -8 -1 -5 -13 12 -47 -84 -431 -179 -716 -80 -240 -123 -346 -215 -530
-218 -436 -461 -788 -780 -1131 -62 -67 -113 -125 -113 -129 0 -24 291 235
421 375 49 52 89 90 89 84 0 -6 -29 -55 -65 -109 -266 -398 -752 -830 -1296
-1155 -171 -102 -180 -108 -91 -64 41 19 86 40 100 45 l27 9 -25 -19 c-48 -38
-276 -169 -415 -240 -77 -38 -137 -70 -134 -71 16 -1 208 84 374 165 271 133
471 255 721 440 458 340 924 857 1213 1348 63 107 221 410 221 423 0 5 -33
-52 -73 -126 -80 -150 -175 -310 -184 -310 -3 0 1 10 9 22 9 13 46 77 83 143
150 263 302 610 394 898 44 139 131 476 131 508 0 11 4 18 8 15 5 -3 7 9 4 27
-3 25 -1 29 8 17 8 -11 9 -6 5 25 -5 31 -4 37 5 25 9 -12 10 -5 5 30 -5 34 -4
41 5 30 9 -11 10 -4 5 30 -5 35 -4 42 5 30 9 -12 10 -3 5 35 -3 30 -2 45 3 37
16 -24 44 304 49 573 5 231 -2 405 -24 635 -3 36 -3 63 0 60 11 -10 40 -311
47 -495 l8 -190 -4 230 c-2 127 -11 295 -19 375 -8 80 -13 168 -10 195 3 41 3
45 -5 20 -7 -24 -8 -17 -5 30 3 44 2 53 -5 35 -7 -19 -8 -11 -5 30 4 41 2 50
-5 35 -9 -16 -9 -14 -5 13 2 18 -7 86 -20 150 -37 169 -39 194 -5 62 59 -234
106 -561 116 -825 7 -174 -10 -610 -31 -805 -29 -260 -85 -549 -150 -779 -42
-147 -43 -167 -4 -51 39 114 27 56 -22 -110 -181 -608 -496 -1189 -927 -1710
-211 -254 -584 -600 -875 -808 -928 -665 -2066 -974 -3232 -877 -49 4 -87 5
-84 1 3 -3 95 -13 205 -22 238 -19 679 -14 899 10 323 36 739 123 979 205 49
17 91 29 94 27 6 -7 -290 -101 -438 -140 -262 -68 -495 -111 -760 -141 -116
-13 -372 -35 -403 -35 -7 0 -8 -3 -1 -10 16 -16 243 -23 394 -11 724 55 1447
288 2100 674 532 316 1026 761 1405 1266 529 706 839 1517 942 2461 22 205 25
755 5 955 -48 474 -123 839 -252 1225 -123 370 -259 650 -485 995 -310 476
-735 934 -1180 1271 -313 237 -772 496 -1137 643 -659 265 -1432 390 -2103
340z m882 -85 c-3 -3 -12 -4 -19 -1 -8 3 -5 6 6 6 11 1 17 -2 13 -5z m343 -48
c341 -72 565 -145 894 -291 430 -191 816 -428 1156 -710 108 -90 390 -363 390
-378 0 -5 -63 52 -140 126 -681 663 -1537 1103 -2465 1268 -138 25 -150 28
-85 25 41 -2 154 -20 250 -40z m2645 -1606 c10 -11 16 -20 13 -20 -3 0 -13 9
-23 20 -10 11 -16 20 -13 20 3 0 13 -9 23 -20z m189 -235 c173 -229 290 -423
441 -730 179 -365 283 -655 369 -1030 30 -130 76 -391 75 -420 0 -11 -12 40
-25 113 -111 616 -312 1152 -638 1702 -28 47 -51 90 -52 96 -3 19 -115 181
-228 329 -58 77 -88 120 -66 95 23 -25 78 -94 124 -155z m845 -1605 c0 -9 -4
-8 -9 5 -5 11 -9 27 -9 35 0 9 4 8 9 -5 5 -11 9 -27 9 -35z m8 -42 c-3 -8 -6
-5 -6 6 -1 11 2 17 5 13 3 -3 4 -12 1 -19z m50 -520 c-3 -8 -6 -5 -6 6 -1 11
2 17 5 13 3 -3 4 -12 1 -19z m-10 -90 c-2 -13 -4 -5 -4 17 -1 22 1 32 4 23 2
-10 2 -28 0 -40z m20 15 c-3 -10 -5 -4 -5 12 0 17 2 24 5 18 2 -7 2 -21 0 -30z
m-10 -95 c-2 -13 -4 -5 -4 17 -1 22 1 32 4 23 2 -10 2 -28 0 -40z m10 -100
c-2 -13 -4 -3 -4 22 0 25 2 35 4 23 2 -13 2 -33 0 -45z m10 -125 c-2 -16 -4
-5 -4 22 0 28 2 40 4 28 2 -13 2 -35 0 -50z m-220 -435 c-2 -18 -4 -4 -4 32 0
36 2 50 4 33 2 -18 2 -48 0 -65z m-10 -190 c-2 -13 -4 -3 -4 22 0 25 2 35 4
23 2 -13 2 -33 0 -45z m-10 -115 c-2 -16 -4 -5 -4 22 0 28 2 40 4 28 2 -13 2
-35 0 -50z m-10 -95 c-2 -13 -4 -5 -4 17 -1 22 1 32 4 23 2 -10 2 -28 0 -40z
m370 -280 c-3 -7 -5 -2 -5 12 0 14 2 19 5 13 2 -7 2 -19 0 -25z m-22 -151 c-9
-56 -30 -156 -46 -222 -32 -125 -122 -407 -140 -434 -13 -19 -14 -25 36 129
45 140 117 420 141 553 24 128 31 107 9 -26z m-168 -309 c-3 -8 -6 -5 -6 6 -1
11 2 17 5 13 3 -3 4 -12 1 -19z m-226 -855 c-11 -21 -20 -35 -21 -31 0 12 33
78 38 74 2 -2 -6 -21 -17 -43z m-136 -273 c-268 -502 -578 -904 -990 -1284
-179 -165 -509 -422 -624 -487 -25 -14 -75 -44 -111 -66 -83 -50 -208 -119
-195 -106 6 5 62 42 125 81 127 79 146 92 350 240 596 436 1087 995 1445 1645
44 80 81 144 83 142 2 -2 -35 -76 -83 -165z m-2435 -2180 c-8 -5 -19 -10 -25
-10 -5 0 -3 5 5 10 8 5 20 10 25 10 6 0 3 -5 -5 -10z m-100 -40 c-8 -5 -19
-10 -25 -10 -5 0 -3 5 5 10 8 5 20 10 25 10 6 0 3 -5 -5 -10z"/>
<path d="M5150 8180 c0 -5 -9 -10 -20 -10 -17 0 -20 -7 -20 -47 0 -71 -25
-210 -49 -275 -12 -31 -47 -96 -78 -145 -31 -48 -70 -110 -87 -137 -63 -100
-42 -245 47 -322 23 -19 58 -40 79 -46 36 -11 38 -13 38 -52 l0 -42 -132 -12
c-164 -14 -228 -31 -343 -87 -163 -80 -187 -125 -28 -52 54 25 126 55 160 66
76 26 219 51 288 51 l52 0 7 -67 c8 -74 45 -184 61 -180 12 2 12 0 -5 135 -7
57 -11 105 -9 107 2 1 40 -1 84 -5 120 -13 293 -12 297 1 5 14 107 -5 153 -28
138 -69 211 -189 168 -272 -19 -37 -19 -37 -108 -77 -33 -15 -95 -51 -138 -80
-92 -64 -128 -74 -246 -75 -80 0 -94 2 -129 26 -59 39 -117 41 -249 11 -61
-14 -125 -26 -141 -26 -48 0 -123 27 -163 59 -21 17 -47 31 -58 31 -21 0 -21
-5 -21 -202 0 -112 5 -252 12 -311 13 -119 10 -127 -43 -127 -40 0 -77 35 -92
88 -13 42 -12 51 6 90 30 70 34 212 8 354 -25 139 -27 235 -5 307 17 57 14 71
-11 51 -46 -38 -58 -207 -25 -366 32 -151 29 -213 -14 -306 -48 -102 -50 -166
-7 -209 16 -16 42 -32 58 -35 l28 -5 -2 -307 c-1 -169 -8 -446 -14 -617 -11
-323 -4 -550 26 -805 l14 -115 73 -68 c85 -80 208 -145 333 -178 101 -27 359
-37 472 -19 156 25 308 91 399 174 l57 52 -2 1024 c-1 874 -11 1497 -25 1562
-2 9 2 19 10 22 30 12 54 70 54 132 0 49 -5 68 -29 105 -38 58 -75 92 -136
122 -69 34 -98 38 -323 42 -232 6 -276 11 -268 32 3 8 6 26 6 39 0 22 4 24 43
24 70 0 155 48 205 116 111 150 107 351 -12 585 -18 36 -69 121 -111 187 -71
111 -95 140 -95 112z m135 -270 c118 -232 140 -383 75 -525 -35 -78 -123 -144
-192 -145 -34 0 -34 2 -3 88 29 80 31 102 10 102 -19 0 -49 -48 -77 -122 -11
-32 -23 -58 -25 -58 -17 0 -85 45 -106 69 -68 81 -58 149 46 314 102 162 131
245 143 415 l7 93 34 -63 c19 -35 58 -110 88 -168z m511 -1272 c-12 -69 -27
-241 -41 -453 -25 -373 -19 -918 20 -1770 l13 -300 -31 -33 c-67 -70 -179
-125 -325 -159 -117 -27 -355 -24 -482 7 -163 39 -302 101 -377 167 -31 28
-32 30 -43 163 -6 74 -15 461 -20 860 -4 399 -11 748 -15 777 l-7 52 38 7 c80
14 74 -10 74 325 l0 300 33 -25 c79 -61 173 -71 319 -36 110 26 149 25 227 -6
70 -28 205 -43 275 -30 20 4 73 32 119 63 77 53 202 122 220 123 4 0 5 -15 3
-32z"/>
<path d="M5235 7833 c18 -118 29 -163 38 -163 11 0 3 90 -14 153 -11 43 -31
51 -24 10z"/>
<path d="M5317 7703 c-11 -10 -8 -61 3 -68 6 -4 10 10 10 34 0 42 -2 46 -13
34z"/>
<path d="M5606 6518 c-55 -41 -68 -58 -43 -58 23 0 117 74 117 92 0 16 -18 7
-74 -34z"/>
<path d="M5680 6469 c-57 -38 -59 -41 -24 -29 34 12 81 46 74 54 -3 3 -25 -9
-50 -25z"/>
<path d="M4666 4112 c75 -69 214 -134 214 -100 0 9 -27 27 -65 43 -36 15 -90
45 -120 66 -76 53 -91 48 -29 -9z"/>
<path d="M4740 4151 c0 -9 164 -87 205 -97 42 -10 29 15 -18 35 -85 37 -187
70 -187 62z"/>
<path d="M4686 6855 c19 -29 100 -70 164 -84 161 -34 474 -43 615 -16 104 19
245 71 245 89 0 25 -13 25 -78 0 -162 -61 -211 -69 -437 -69 -219 0 -317 11
-411 46 -28 11 -59 28 -69 39 -10 11 -24 20 -32 20 -11 0 -10 -5 3 -25z"/>
<path d="M4665 6805 c25 -21 155 -85 172 -85 32 0 6 18 -74 53 -115 50 -122
52 -98 32z"/>
<path d="M431 6284 c0 -11 3 -14 6 -6 3 7 2 16 -1 19 -3 4 -6 -2 -5 -13z"/>
<path d="M421 6244 c0 -11 3 -14 6 -6 3 7 2 16 -1 19 -3 4 -6 -2 -5 -13z"/>
<path d="M411 6204 c0 -11 3 -14 6 -6 3 7 2 16 -1 19 -3 4 -6 -2 -5 -13z"/>
<path d="M401 6154 c0 -11 3 -14 6 -6 3 7 2 16 -1 19 -3 4 -6 -2 -5 -13z"/>
<path d="M391 6114 c0 -11 3 -14 6 -6 3 7 2 16 -1 19 -3 4 -6 -2 -5 -13z"/>
<path d="M381 6064 c0 -11 3 -14 6 -6 3 7 2 16 -1 19 -3 4 -6 -2 -5 -13z"/>
<path d="M9481 5934 c0 -11 3 -14 6 -6 3 7 2 16 -1 19 -3 4 -6 -2 -5 -13z"/>
<path d="M9492 5870 c0 -14 2 -19 5 -12 2 6 2 18 0 25 -3 6 -5 1 -5 -13z"/>
<path d="M9802 5860 c0 -19 2 -27 5 -17 2 9 2 25 0 35 -3 9 -5 1 -5 -18z"/>
<path d="M9502 5795 c0 -16 2 -22 5 -12 2 9 2 23 0 30 -3 6 -5 -1 -5 -18z"/>
<path d="M9812 5780 c0 -19 2 -27 5 -17 2 9 2 25 0 35 -3 9 -5 1 -5 -18z"/>
<path d="M9512 5715 c0 -16 2 -22 5 -12 2 9 2 23 0 30 -3 6 -5 -1 -5 -18z"/>
<path d="M9822 5690 c0 -19 2 -27 5 -17 2 9 2 25 0 35 -3 9 -5 1 -5 -18z"/>
<path d="M9523 5605 c0 -27 2 -38 4 -22 2 15 2 37 0 50 -2 12 -4 0 -4 -28z"/>
<path d="M9833 5585 c0 -22 2 -30 4 -17 2 12 2 30 0 40 -3 9 -5 -1 -4 -23z"/>
<path d="M9823 5020 c0 -47 2 -66 4 -42 2 23 2 61 0 85 -2 23 -4 4 -4 -43z"/>
<path d="M9621 3699 c-7 -22 -11 -43 -8 -45 2 -2 9 14 16 37 7 22 11 43 8 45
-2 2 -9 -14 -16 -37z"/>
<path d="M9581 3579 c-6 -18 -9 -34 -7 -36 2 -2 9 10 15 28 6 18 9 34 7 36 -2
2 -9 -10 -15 -28z"/>
<path d="M9536 3455 c-9 -26 -7 -32 5 -12 6 10 9 21 6 23 -2 3 -7 -2 -11 -11z"/>
<path d="M9506 3375 c-9 -26 -7 -32 5 -12 6 10 9 21 6 23 -2 3 -7 -2 -11 -11z"/>
<path d="M3770 3362 c-47 -23 -110 -119 -141 -213 -33 -101 -35 -275 -4 -329
48 -80 157 -128 227 -99 39 16 90 115 67 130 -28 19 -54 4 -76 -42 -26 -55
-45 -65 -84 -42 -49 29 -79 103 -79 193 0 163 89 380 155 380 20 0 46 -59 54
-125 6 -49 6 -50 41 -50 l35 0 -1 57 c-2 73 -30 120 -84 142 -51 20 -67 20
-110 -2z"/>
<path d="M4203 3369 c-67 -20 -120 -113 -143 -254 -12 -69 -14 -250 -4 -324 8
-58 21 -74 61 -69 21 2 27 8 25 23 -1 11 -5 53 -9 93 l-6 72 86 0 c47 0 88 -3
90 -7 2 -5 1 -51 -3 -103 -8 -101 -4 -110 37 -110 43 0 48 28 48 300 0 224 -2
261 -18 303 -26 66 -93 97 -164 76z m65 -37 c22 -15 32 -74 39 -224 l6 -148
-93 0 -93 0 7 93 c9 135 33 214 79 265 22 23 34 27 55 14z"/>
<path d="M4502 3368 c-9 -9 -12 -91 -12 -320 l0 -308 25 -6 c55 -14 54 -14 57
243 l3 238 89 -155 c160 -278 188 -321 213 -333 50 -22 52 -10 55 328 l3 310
-31 3 c-22 2 -33 -2 -38 -13 -3 -9 -7 -96 -7 -193 -1 -97 -4 -198 -8 -224 l-6
-48 -139 240 c-76 132 -144 240 -151 240 -7 0 -19 2 -27 5 -7 3 -19 0 -26 -7z"/>
<path d="M5138 3373 l-66 -4 -6 -82 c-3 -45 -8 -188 -11 -317 l-5 -236 70 -13
c182 -33 276 44 302 247 6 48 8 126 5 173 -12 188 -80 243 -289 232z m152 -61
c15 -16 33 -46 40 -68 30 -104 20 -336 -19 -412 -31 -61 -96 -93 -157 -78
l-26 7 8 187 c4 103 6 198 5 212 -1 14 1 57 4 97 7 78 8 80 78 82 30 1 45 -5
67 -27z"/>
<path d="M5545 3369 c-4 -5 -8 -155 -8 -332 l-2 -321 35 -8 c19 -4 81 -4 138
-1 97 6 103 7 100 27 -3 19 -10 21 -100 24 l-97 3 2 300 c2 257 0 301 -13 309
-20 13 -47 12 -55 -1z"/>
<path d="M6011 3335 c-92 -83 -167 -310 -142 -432 22 -112 102 -183 206 -183
43 0 56 4 78 28 29 30 60 96 50 106 -4 3 -19 6 -34 6 -24 0 -32 -7 -51 -47
-18 -37 -29 -49 -49 -51 -50 -6 -102 56 -118 143 l-8 45 79 0 c77 0 79 1 76
23 -3 20 -9 22 -76 25 l-74 3 6 40 c20 147 96 289 153 289 27 0 39 -24 57
-110 11 -52 14 -55 44 -58 l32 -3 0 51 c0 103 -40 152 -129 158 -56 4 -60 3
-100 -33z"/>
<path d="M6444 3356 c-43 -19 -89 -79 -109 -143 -33 -103 -6 -152 115 -216 79
-41 104 -79 96 -147 -6 -60 -24 -98 -49 -106 -30 -9 -71 41 -88 105 -10 40
-18 53 -36 57 -42 11 -56 -2 -48 -44 16 -86 95 -162 169 -162 73 0 127 70 129
170 2 74 -15 99 -95 137 -35 17 -79 48 -97 69 -31 35 -33 41 -28 89 9 89 71
181 103 154 19 -16 44 -98 44 -145 0 -29 5 -44 16 -48 24 -9 52 -7 60 5 15 24
4 104 -21 155 -20 42 -33 55 -65 68 -48 19 -56 19 -96 2z"/>
<path d="M9486 3325 c-9 -26 -7 -32 5 -12 6 10 9 21 6 23 -2 3 -7 -2 -11 -11z"/>
<path d="M9462 3265 c-17 -37 -14 -45 4 -12 9 16 14 31 11 33 -2 2 -9 -7 -15
-21z"/>
<path d="M9376 3215 c-9 -26 -7 -32 5 -12 6 10 9 21 6 23 -2 3 -7 -2 -11 -11z"/>
<path d="M9370 3063 c-94 -198 -214 -407 -340 -598 -55 -82 -89 -136 -75 -120
50 59 214 313 291 450 73 130 209 414 202 420 -2 2 -37 -66 -78 -152z"/>
<path d="M731 3145 c0 -5 13 -35 29 -65 16 -30 29 -50 29 -45 0 6 -13 35 -29
65 -16 30 -29 51 -29 45z"/>
<path d="M9005 3029 c-9 -17 -15 -33 -13 -35 3 -2 12 12 21 31 21 43 13 47 -8
4z"/>
<path d="M790 3017 c0 -26 216 -416 303 -547 368 -551 821 -1010 1339 -1358
121 -81 347 -216 428 -256 95 -46 77 -34 -80 55 -620 350 -1214 905 -1627
1519 -87 129 -269 423 -297 478 -32 64 -66 120 -66 109z"/>
<path d="M3696 2449 c-67 -19 -98 -91 -98 -229 1 -131 26 -170 114 -170 78 0
101 30 119 155 12 88 -2 190 -29 217 -24 25 -71 36 -106 27z m50 -27 c37 -24
52 -128 34 -242 -14 -88 -34 -115 -82 -108 -39 5 -52 50 -53 173 0 120 12 156
58 175 28 11 30 11 43 2z"/>
<path d="M3910 2454 c0 -4 -2 -96 -5 -205 -5 -200 -1 -225 30 -199 10 8 15 39
17 103 l3 92 40 3 c22 1 47 5 55 8 24 9 -9 24 -52 24 l-38 0 0 75 0 75 76 0
c56 0 75 3 72 13 -5 13 -198 24 -198 11z"/>
<path d="M4579 2453 c-1 -4 -1 -44 1 -89 2 -78 1 -82 -25 -103 -78 -60 -161
12 -153 134 3 44 1 50 -17 50 -49 0 -36 -145 17 -190 36 -31 64 -38 123 -33
52 4 56 -6 30 -70 -41 -98 -111 -111 -134 -25 -5 18 -15 29 -29 31 -18 3 -22
-1 -22 -27 0 -23 9 -37 35 -57 30 -23 42 -26 82 -21 38 4 54 12 79 40 41 44
54 88 61 202 6 101 -5 158 -30 163 -9 2 -18 0 -18 -5z"/>
<path d="M4785 2449 c-63 -18 -101 -123 -93 -258 6 -107 33 -141 113 -141 83
0 114 48 122 195 6 104 -7 169 -39 186 -37 20 -72 26 -103 18z m77 -59 c32
-63 19 -268 -19 -306 -9 -9 -28 -14 -47 -12 -42 4 -55 44 -55 178 0 113 9 143
50 166 35 20 52 13 71 -26z"/>
<path d="M5216 2452 c-2 -4 -7 -61 -11 -127 -4 -66 -12 -129 -17 -139 -22 -41
-91 -106 -114 -106 -19 0 -24 7 -30 36 -6 33 -1 143 13 277 6 58 5 59 -18 55
-23 -3 -25 -9 -36 -103 -23 -197 -12 -275 42 -295 34 -13 82 7 117 49 15 17
29 31 32 31 3 0 6 -18 6 -39 0 -38 16 -56 37 -43 6 4 12 87 15 204 5 167 3
198 -9 202 -19 8 -21 7 -27 -2z"/>
<path d="M5336 2363 c-3 -54 -7 -147 -8 -208 -2 -104 -1 -110 19 -113 16 -2
21 4 26 35 4 21 7 50 7 64 0 24 5 21 65 -39 46 -46 68 -63 76 -55 7 7 -6 26
-45 63 -60 57 -65 67 -38 77 61 23 102 81 102 145 0 43 -54 96 -110 107 -25 5
-55 12 -66 16 -20 6 -22 3 -28 -92z m131 18 c39 -58 26 -123 -33 -162 -51 -34
-54 -29 -54 92 l0 110 32 -3 c24 -2 38 -12 55 -37z"/>
<path d="M5816 2452 c-3 -5 -6 -98 -6 -208 l-2 -199 86 -3 c71 -2 86 0 86 12
0 11 -15 16 -62 18 l-62 3 3 184 c2 145 0 185 -11 192 -17 11 -25 11 -32 1z"/>
<path d="M6167 2453 c-2 -4 -5 -82 -6 -173 -1 -91 -4 -179 -7 -196 -4 -24 -2
-33 12 -38 28 -11 34 5 40 95 3 46 7 90 9 97 3 7 22 12 51 12 62 0 54 24 -10
28 l-47 3 3 72 3 72 75 5 c43 3 74 9 73 15 -3 12 -189 19 -196 8z"/>
<path d="M6022 2436 c15 -11 16 -31 11 -194 -4 -121 -10 -182 -17 -183 -17 -1
27 -18 49 -18 19 -1 20 5 20 171 0 95 3 188 7 206 l8 32 -48 0 c-40 -1 -45 -2
-30 -14z"/>
<path d="M6484 2425 c-56 -56 -99 -205 -80 -278 10 -40 54 -85 92 -96 46 -13
79 0 99 38 19 38 19 41 -5 41 -12 0 -26 -12 -35 -31 -12 -22 -22 -29 -38 -27
-26 4 -67 62 -67 94 0 20 6 23 48 26 26 2 47 8 47 13 0 6 -21 11 -47 13 -56 4
-58 9 -27 99 20 59 57 113 78 113 14 0 28 -28 36 -73 6 -31 11 -38 29 -35 11
2 20 6 19 11 -2 4 -3 21 -3 37 0 72 -94 107 -146 55z"/>
<path d="M8309 2053 l-24 -28 28 24 c15 14 27 26 27 28 0 8 -8 1 -31 -24z"/>
<path d="M8160 1898 c-97 -95 -223 -206 -346 -308 -56 -46 -10 -14 116 82 80
61 166 140 238 217 63 66 112 121 110 121 -1 -1 -55 -51 -118 -112z"/>
<path d="M2195 1500 c3 -5 63 -54 133 -109 396 -307 801 -530 1257 -692 143
-51 354 -113 361 -107 2 2 -49 19 -114 37 -234 67 -488 168 -757 303 -273 137
-499 280 -779 496 -59 45 -105 78 -101 72z"/>
<path d="M2790 1336 c0 -3 9 -10 20 -16 11 -6 20 -8 20 -6 0 3 -9 10 -20 16
-11 6 -20 8 -20 6z"/>
<path d="M2890 1276 c0 -3 9 -10 20 -16 11 -6 20 -8 20 -6 0 3 -9 10 -20 16
-11 6 -20 8 -20 6z"/>
<path d="M2940 1247 c0 -7 251 -139 256 -135 2 2 -55 34 -126 72 -72 37 -130
65 -130 63z"/>
<path d="M6710 965 c-14 -8 -96 -38 -183 -66 -87 -28 -156 -53 -154 -55 8 -8
356 110 361 123 6 16 7 16 -24 -2z"/>
<path d="M2910 965 c0 -2 18 -14 40 -25 22 -11 40 -18 40 -15 0 2 -18 14 -40
25 -22 11 -40 18 -40 15z"/>
<path d="M3020 774 c0 -11 292 -145 461 -212 215 -86 558 -186 575 -169 3 2
-12 8 -32 12 -56 10 -375 108 -499 153 -110 40 -225 90 -407 175 -54 25 -98
44 -98 41z"/>
<path d="M5123 663 c32 -2 81 -2 110 0 29 2 3 3 -58 3 -60 0 -84 -1 -52 -3z"/>
<path d="M6500 585 c-19 -7 -28 -13 -20 -13 8 0 31 6 50 13 19 7 28 13 20 13
-8 0 -31 -6 -50 -13z"/>
<path d="M3968 583 c7 -3 16 -2 19 1 4 3 -2 6 -13 5 -11 0 -14 -3 -6 -6z"/>
<path d="M4008 573 c7 -3 16 -2 19 1 4 3 -2 6 -13 5 -11 0 -14 -3 -6 -6z"/>
<path d="M4060 560 c14 -4 34 -8 45 -8 16 0 15 2 -5 8 -14 4 -34 8 -45 8 -16
0 -15 -2 5 -8z"/>
<path d="M6411 559 c-14 -5 -62 -19 -108 -31 -46 -11 -82 -23 -80 -25 6 -5
147 31 202 51 22 8 33 15 25 15 -8 0 -26 -5 -39 -10z"/>
<path d="M4138 543 c7 -3 16 -2 19 1 4 3 -2 6 -13 5 -11 0 -14 -3 -6 -6z"/>
<path d="M4338 503 c6 -2 18 -2 25 0 6 3 1 5 -13 5 -14 0 -19 -2 -12 -5z"/>
<path d="M6188 493 c7 -3 16 -2 19 1 4 3 -2 6 -13 5 -11 0 -14 -3 -6 -6z"/>
<path d="M6148 483 c7 -3 16 -2 19 1 4 3 -2 6 -13 5 -11 0 -14 -3 -6 -6z"/>
<path d="M6108 473 c7 -3 16 -2 19 1 4 3 -2 6 -13 5 -11 0 -14 -3 -6 -6z"/>
<path d="M6058 463 c7 -3 16 -2 19 1 4 3 -2 6 -13 5 -11 0 -14 -3 -6 -6z"/>
<path d="M6008 453 c7 -3 16 -2 19 1 4 3 -2 6 -13 5 -11 0 -14 -3 -6 -6z"/>
<path d="M5948 443 c7 -3 16 -2 19 1 4 3 -2 6 -13 5 -11 0 -14 -3 -6 -6z"/>
<path d="M5888 433 c6 -2 18 -2 25 0 6 3 1 5 -13 5 -14 0 -19 -2 -12 -5z"/>
<path d="M5755 419 c-49 -8 -341 -35 -460 -43 -33 -2 10 -2 95 0 129 3 439 34
475 48 18 8 -59 4 -110 -5z"/>
<path d="M4078 383 c7 -3 16 -2 19 1 4 3 -2 6 -13 5 -11 0 -14 -3 -6 -6z"/>
<path d="M4928 373 c50 -2 134 -2 185 0 50 1 9 3 -93 3 -102 0 -143 -2 -92 -3z"/>
<path d="M4403 343 c9 -2 23 -2 30 0 6 3 -1 5 -18 5 -16 0 -22 -2 -12 -5z"/>
<path d="M4473 333 c9 -2 25 -2 35 0 9 3 1 5 -18 5 -19 0 -27 -2 -17 -5z"/>
</g>
</svg>
